<svg width="213" height="37" viewBox="0 0 213 37" fill="none" xmlns="http://www.w3.org/2000/svg">
<path d="M0.168 36V0.959999H7.368V14.4H15.432V0.959999H22.632V36H15.432V21.12H7.368V36H0.168ZM43.1093 36.48C40.7733 36.48 38.7253 36.048 36.9653 35.184C35.2373 34.288 33.8933 33.056 32.9333 31.488C32.0053 29.888 31.5413 28.032 31.5413 25.92V19.68C31.5413 17.568 32.0053 15.728 32.9333 14.16C33.8933 12.56 35.2373 11.328 36.9653 10.464C38.7253 9.568 40.7733 9.12 43.1093 9.12C45.4453 9.12 47.4613 9.568 49.1573 10.464C50.8853 11.328 52.2133 12.56 53.1413 14.16C54.1013 15.728 54.5813 17.568 54.5813 19.68V24.48H38.4053V25.92C38.4053 27.584 38.8053 28.848 39.6053 29.712C40.4053 30.544 41.6053 30.96 43.2053 30.96C44.3253 30.96 45.2213 30.768 45.8933 30.384C46.5973 30 47.0613 29.472 47.2853 28.8H54.3413C53.7653 31.104 52.4533 32.96 50.4053 34.368C48.3893 35.776 45.9573 36.48 43.1093 36.48ZM47.7173 20.784V19.584C47.7173 17.952 47.3333 16.704 46.5653 15.84C45.8293 14.976 44.6773 14.544 43.1093 14.544C41.5413 14.544 40.3573 14.992 39.5573 15.888C38.7893 16.784 38.4053 18.048 38.4053 19.68V20.4L48.1973 20.304L47.7173 20.784ZM64.2585 36V9.6H70.9785V14.64H72.8025L70.7385 17.712C70.7385 14.864 71.3945 12.72 72.7065 11.28C74.0185 9.84 75.9385 9.12 78.4665 9.12C81.3785 9.12 83.6345 10 85.2345 11.76C86.8665 13.52 87.6825 16 87.6825 19.2V21.36H80.0025V19.68C80.0025 18.24 79.6025 17.12 78.8025 16.32C78.0345 15.52 76.9945 15.12 75.6825 15.12C74.3065 15.12 73.2505 15.52 72.5145 16.32C71.8105 17.12 71.4585 18.24 71.4585 19.68V36H64.2585ZM93.9997 36V9.6H99.6637V13.44H100.816L99.9037 14.112C99.9037 12.608 100.336 11.408 101.2 10.512C102.064 9.584 103.136 9.12 104.416 9.12C105.792 9.12 106.864 9.712 107.632 10.896C108.4 12.08 108.784 13.648 108.784 15.6L107.92 13.44H109.264L108.832 14.112C108.832 12.608 109.248 11.408 110.08 10.512C110.912 9.584 112.032 9.12 113.44 9.12C115.04 9.12 116.336 9.728 117.328 10.944C118.32 12.128 118.816 13.76 118.816 15.84V36H112.624V16.32C112.624 15.584 112.464 15.024 112.144 14.64C111.824 14.224 111.36 14.016 110.752 14.016C110.144 14.016 109.68 14.224 109.36 14.64C109.04 15.024 108.88 15.584 108.88 16.32V36H103.936V16.32C103.936 15.584 103.776 15.024 103.456 14.64C103.136 14.224 102.672 14.016 102.064 14.016C101.456 14.016 100.992 14.224 100.672 14.64C100.352 15.024 100.192 15.584 100.192 16.32V36H93.9997ZM138.093 36.48C135.757 36.48 133.709 36.048 131.949 35.184C130.221 34.288 128.877 33.056 127.917 31.488C126.989 29.888 126.525 28.032 126.525 25.92V19.68C126.525 17.568 126.989 15.728 127.917 14.16C128.877 12.56 130.221 11.328 131.949 10.464C133.709 9.568 135.757 9.12 138.093 9.12C140.429 9.12 142.445 9.568 144.141 10.464C145.869 11.328 147.197 12.56 148.125 14.16C149.085 15.728 149.565 17.568 149.565 19.68V24.48H133.389V25.92C133.389 27.584 133.789 28.848 134.589 29.712C135.389 30.544 136.589 30.96 138.189 30.96C139.309 30.96 140.205 30.768 140.877 30.384C141.581 30 142.045 29.472 142.269 28.8H149.325C148.749 31.104 147.437 32.96 145.389 34.368C143.373 35.776 140.941 36.48 138.093 36.48ZM142.701 20.784V19.584C142.701 17.952 142.317 16.704 141.549 15.84C140.813 14.976 139.661 14.544 138.093 14.544C136.525 14.544 135.341 14.992 134.541 15.888C133.773 16.784 133.389 18.048 133.389 19.68V20.4L143.181 20.304L142.701 20.784ZM174.026 36C172.17 36 170.538 35.616 169.13 34.848C167.722 34.048 166.618 32.944 165.818 31.536C165.05 30.128 164.666 28.496 164.666 26.64V7.44H156.506V0.959999H171.866V26.64C171.866 27.504 172.122 28.208 172.634 28.752C173.178 29.264 173.882 29.52 174.746 29.52H182.426V36H174.026ZM197.959 36.48C195.303 36.48 193.191 35.76 191.623 34.32C190.087 32.88 189.319 30.928 189.319 28.464C189.319 25.808 190.231 23.776 192.055 22.368C193.911 20.928 196.567 20.208 200.023 20.208H205.495V18.24C205.495 17.216 205.127 16.4 204.391 15.792C203.687 15.184 202.727 14.88 201.511 14.88C200.391 14.88 199.463 15.136 198.727 15.648C197.991 16.16 197.543 16.864 197.383 17.76H190.423C190.711 15.104 191.863 13.008 193.879 11.472C195.927 9.904 198.551 9.12 201.752 9.12C205.111 9.12 207.767 9.952 209.72 11.616C211.703 13.248 212.695 15.456 212.695 18.24V36H205.736V31.68H204.583L205.783 30C205.783 31.984 205.063 33.568 203.623 34.752C202.215 35.904 200.327 36.48 197.959 36.48ZM200.648 31.2C202.056 31.2 203.207 30.832 204.103 30.096C205.031 29.328 205.495 28.336 205.495 27.12V24.288H200.167C199.079 24.288 198.199 24.608 197.527 25.248C196.855 25.856 196.519 26.672 196.519 27.696C196.519 28.784 196.887 29.648 197.623 30.288C198.359 30.896 199.367 31.2 200.648 31.2Z" fill="white"/>
</svg>
