<svg width="769" height="93" viewBox="0 0 769 93" fill="none" xmlns="http://www.w3.org/2000/svg">
<path d="M7.16 91.994C6.216 91.994 4.918 90.9713 3.266 88.926C1.614 86.802 0.788 84.796 0.788 82.908C0.788 81.02 2.51867 73.3107 5.98 59.78C4.95733 59.3867 4.05267 58.718 3.266 57.774C2.558 56.7513 2.204 55.6107 2.204 54.352C2.204 53.3293 4.24933 52.1887 8.34 50.93C13.6107 30.3193 16.246 17.536 16.246 12.58C16.246 11.2427 16.4033 10.338 16.718 9.86599C17.1113 9.31533 17.8193 9.04 18.842 9.04C19.9433 9.04 21.3593 10.2593 23.09 12.698C24.8993 15.1367 25.804 17.89 25.804 20.958C25.804 23.9473 23.8767 33.0333 20.022 48.216C30.406 46.092 40.5933 44.7153 50.584 44.086C54.596 27.7233 56.602 17.2213 56.602 12.58C56.602 10.22 57.3887 9.04 58.962 9.04C60.2993 9.04 61.8727 10.2593 63.682 12.698C65.4913 15.1367 66.396 17.6933 66.396 20.368C66.396 22.964 64.626 30.9487 61.086 44.322C64.7047 44.8727 66.514 45.974 66.514 47.626C66.514 49.1993 64.0753 50.4973 59.198 51.52C56.6807 60.8027 54.95 67.2533 54.006 70.872C53.1407 74.412 52.4327 77.244 51.882 79.368C51.3313 81.492 50.7413 83.616 50.112 85.74C49.0107 89.9093 48.0273 91.994 47.162 91.994C46.0607 91.994 44.7627 91.0893 43.268 89.28C41.852 87.392 41.144 85.4647 41.144 83.498C41.144 81.5313 43.504 71.4227 48.224 53.172C36.7387 54.7453 26.394 56.5547 17.19 58.6C16.0887 62.6907 15.0267 66.6633 14.004 70.518C13.06 74.294 12.3127 77.244 11.762 79.368C11.2113 81.492 10.6213 83.616 9.992 85.74C8.89067 89.9093 7.94667 91.994 7.16 91.994ZM129.871 53.29C129.871 57.4593 127.589 60.8813 123.027 63.556C118.543 66.152 113.429 67.45 107.687 67.45C102.023 67.45 96.8701 66.8207 92.2288 65.562C91.1275 69.0233 90.5768 72.1307 90.5768 74.884C90.5768 77.5587 91.4028 79.6433 93.0548 81.138C94.7855 82.6327 97.5781 83.38 101.433 83.38C105.366 83.38 109.378 82.7113 113.469 81.374C117.638 79.958 119.919 79.25 120.313 79.25C122.358 79.25 123.381 80.0367 123.381 81.61C123.381 83.734 120.981 86.0547 116.183 88.572C111.384 91.0107 106.703 92.23 102.141 92.23C96.0048 92.23 91.0095 90.4207 87.1548 86.802C83.3001 83.1047 81.3728 78.4633 81.3728 72.878C81.3728 67.2927 82.8674 61.4713 85.8568 55.414C88.8461 49.278 92.7008 44.1253 97.4208 39.956C102.141 35.7867 106.821 33.702 111.463 33.702C116.104 33.702 120.313 35.9047 124.089 40.31C127.943 44.7153 129.871 49.042 129.871 53.29ZM112.053 43.024C109.142 43.024 106.113 44.558 102.967 47.626C99.8201 50.6153 97.1454 54.352 94.9428 58.836C98.0895 59.544 101.669 59.898 105.681 59.898C109.693 59.898 113.193 59.2687 116.183 58.01C119.172 56.6727 120.667 54.942 120.667 52.818C120.667 50.694 119.683 48.5307 117.717 46.328C115.829 44.1253 113.941 43.024 112.053 43.024ZM150.072 48.098L149.718 39.248C149.718 35.5507 150.583 33.702 152.314 33.702C153.808 33.702 155.224 34.6853 156.562 36.652C157.978 38.54 158.686 40.8213 158.686 43.496C158.686 46.092 158.607 48.0587 158.45 49.396C165.294 39.012 171.784 33.82 177.92 33.82C181.775 33.82 183.702 34.764 183.702 36.652C183.702 37.596 183.269 38.4613 182.404 39.248C181.538 40.0347 180.162 40.9393 178.274 41.962C174.104 43.7713 170.564 46.564 167.654 50.34C164.822 54.0373 162.501 58.246 160.692 62.966C158.882 67.686 157.427 71.6587 156.326 74.884C155.303 78.1093 154.516 80.6267 153.966 82.436C153.415 84.2453 152.786 86.0153 152.078 87.746C150.819 90.8927 149.364 92.466 147.712 92.466C146.374 92.466 145.273 91.7187 144.408 90.224C143.621 88.6507 143.228 87.156 143.228 85.74C143.228 84.2453 143.896 81.3347 145.234 77.008C148.459 67.096 150.072 57.4593 150.072 48.098ZM265.482 33.702C267.842 33.702 269.927 35.354 271.736 38.658C273.624 41.8833 274.568 45.5807 274.568 49.75C274.568 53.8407 273.821 59.19 272.326 65.798C270.91 72.406 268.983 78.4633 266.544 83.97C264.106 89.4767 261.706 92.23 259.346 92.23C257.694 92.23 256.868 91.168 256.868 89.044C256.868 86.8413 258.206 81.5313 260.88 73.114C263.634 64.618 265.01 57.892 265.01 52.936C265.01 47.9013 264.224 45.384 262.65 45.384C260.684 45.384 258.402 47.1147 255.806 50.576C253.289 54.0373 250.575 58.2067 247.664 63.084C244.754 67.9613 243.18 70.5967 242.944 70.99C242.708 71.3047 242.394 71.7767 242 72.406C241.686 73.0353 241.292 73.704 240.82 74.412C240.427 75.12 239.326 77.244 237.516 80.784C235.786 84.324 234.252 87.1167 232.914 89.162C231.577 91.1287 230.397 92.112 229.374 92.112C228.43 92.112 227.368 91.4827 226.188 90.224C225.008 88.9653 224.418 87.7853 224.418 86.684C224.418 85.5827 225.126 83.3013 226.542 79.84C230.633 69.6133 232.678 60.0947 232.678 51.284C232.678 49.632 232.324 48.2553 231.616 47.154C230.908 45.974 230.122 45.384 229.256 45.384C228.391 45.384 227.486 45.7773 226.542 46.564C225.598 47.272 224.418 48.6093 223.002 50.576C221.586 52.464 220.328 54.2733 219.226 56.004C218.125 57.7347 216.434 60.4487 214.152 64.146C211.95 67.7647 210.258 70.4787 209.078 72.288C207.977 74.0187 206.679 76.064 205.184 78.424C203.69 80.7053 202.51 82.4753 201.644 83.734C200.858 84.9927 199.953 86.3693 198.93 87.864C196.806 90.7747 195.233 92.23 194.21 92.23C193.266 92.23 192.008 91.3647 190.434 89.634C188.861 87.8247 188.074 86.4873 188.074 85.622C188.074 84.678 188.232 83.5373 188.546 82.2C188.861 80.8627 189.176 79.5647 189.49 78.306C189.884 77.0473 190.434 75.1987 191.142 72.76C191.929 70.2427 192.794 67.332 193.738 64.028C194.761 60.6453 195.508 56.0433 195.98 50.222C196.531 44.322 196.924 40.0347 197.16 37.36C197.396 34.6067 198.065 33.23 199.166 33.23C200.897 33.23 202.588 34.1347 204.24 35.944C205.971 37.7533 206.836 39.5627 206.836 41.372C206.836 48.2947 204.24 59.7013 199.048 75.592C207.859 59.072 213.405 49.278 215.686 46.21C217.968 43.142 219.934 40.664 221.586 38.776C224.654 35.3933 227.762 33.702 230.908 33.702C232.796 33.702 235.038 35.354 237.634 38.658C240.309 41.8833 241.646 45.148 241.646 48.452C241.646 51.756 241.174 55.8467 240.23 60.724C249.513 42.7093 257.93 33.702 265.482 33.702ZM337.214 53.29C337.214 57.4593 334.933 60.8813 330.37 63.556C325.886 66.152 320.773 67.45 315.03 67.45C309.366 67.45 304.214 66.8207 299.572 65.562C298.471 69.0233 297.92 72.1307 297.92 74.884C297.92 77.5587 298.746 79.6433 300.398 81.138C302.129 82.6327 304.922 83.38 308.776 83.38C312.71 83.38 316.722 82.7113 320.812 81.374C324.982 79.958 327.263 79.25 327.656 79.25C329.702 79.25 330.724 80.0367 330.724 81.61C330.724 83.734 328.325 86.0547 323.526 88.572C318.728 91.0107 314.047 92.23 309.484 92.23C303.348 92.23 298.353 90.4207 294.498 86.802C290.644 83.1047 288.716 78.4633 288.716 72.878C288.716 67.2927 290.211 61.4713 293.2 55.414C296.19 49.278 300.044 44.1253 304.764 39.956C309.484 35.7867 314.165 33.702 318.806 33.702C323.448 33.702 327.656 35.9047 331.432 40.31C335.287 44.7153 337.214 49.042 337.214 53.29ZM319.396 43.024C316.486 43.024 313.457 44.558 310.31 47.626C307.164 50.6153 304.489 54.352 302.286 58.836C305.433 59.544 309.012 59.898 313.024 59.898C317.036 59.898 320.537 59.2687 323.526 58.01C326.516 56.6727 328.01 54.942 328.01 52.818C328.01 50.694 327.027 48.5307 325.06 46.328C323.172 44.1253 321.284 43.024 319.396 43.024ZM373.581 10.574C373.581 25.3633 370.513 44.558 364.377 68.158C360.444 84.206 357.691 92.23 356.117 92.23C355.016 92.23 353.718 91.3647 352.223 89.634C350.807 87.9033 350.099 86.566 350.099 85.622C350.099 84.678 351.24 79.8007 353.521 70.99C355.803 62.1793 358.084 51.3627 360.365 38.54C362.647 25.6387 363.787 14.0353 363.787 3.72999C363.787 2.62866 363.945 1.842 364.259 1.37C364.574 0.897998 365.243 0.661999 366.265 0.661999C367.288 0.661999 368.743 1.80267 370.631 4.084C372.598 6.28666 373.581 8.45 373.581 10.574ZM417.727 33.702C421.267 33.702 424.532 35.5113 427.521 39.13C430.511 42.67 432.005 45.8953 432.005 48.806C432.005 51.638 431.022 54.5487 429.055 57.538C429.999 58.718 430.471 59.7407 430.471 60.606C430.471 62.8087 429.96 66.5847 428.937 71.934C427.993 77.2833 427.403 80.784 427.167 82.436C427.01 84.088 426.853 85.4253 426.695 86.448C426.538 87.392 426.341 88.336 426.105 89.28C425.791 91.2467 425.083 92.23 423.981 92.23C422.565 92.23 421.385 91.0107 420.441 88.572C419.576 86.0547 419.065 82.8293 418.907 78.896C411.906 87.7853 405.416 92.23 399.437 92.23C395.819 92.23 392.239 90.696 388.699 87.628C385.238 84.4813 383.507 81.256 383.507 77.952C383.507 73.232 385.238 67.4107 388.699 60.488C392.161 53.4867 396.645 47.272 402.151 41.844C407.658 36.416 412.85 33.702 417.727 33.702ZM423.155 54.47C423.155 47.154 421.7 43.496 418.789 43.496C415.721 43.496 412.142 45.6987 408.051 50.104C403.961 54.4307 400.499 59.3473 397.667 64.854C394.835 70.3607 393.419 74.7267 393.419 77.952C393.419 79.2893 393.97 80.3907 395.071 81.256C396.173 82.0427 397.471 82.436 398.965 82.436C402.663 82.436 406.832 79.958 411.473 75.002C416.115 69.9673 419.34 63.8707 421.149 56.712C421.385 55.532 422.054 54.824 423.155 54.588V54.47ZM554.739 68.748C554.739 75.1987 551.828 80.6267 546.007 85.032C540.186 89.3587 533.499 91.522 525.947 91.522C518.474 91.522 512.298 89.5947 507.421 85.74C502.544 81.8067 500.105 78.1093 500.105 74.648C500.105 72.288 500.813 71.108 502.229 71.108C503.488 71.108 505.966 72.996 509.663 76.772C511.079 78.1093 512.967 79.368 515.327 80.548C517.766 81.728 520.322 82.318 522.997 82.318C528.504 82.318 533.381 80.902 537.629 78.07C541.956 75.238 544.119 72.17 544.119 68.866C544.119 66.742 542.703 64.028 539.871 60.724C537.039 57.42 533.892 54.3127 530.431 51.402C527.048 48.4127 523.941 45.2267 521.109 41.844C518.277 38.4613 516.861 35.7867 516.861 33.82C516.861 31.8533 517.254 29.7687 518.041 27.566C518.828 25.3633 519.693 23.7507 520.637 22.728C523.705 19.3453 528.464 16.238 534.915 13.406C541.444 10.574 546.912 9.158 551.317 9.158C553.598 9.158 555.526 9.90533 557.099 11.4C558.672 12.8947 559.459 14.468 559.459 16.12C559.459 16.9067 558.633 17.536 556.981 18.008C555.329 18.48 552.812 19.1093 549.429 19.896C546.125 20.604 543.175 21.4693 540.579 22.492C531.532 25.9533 527.009 29.2967 527.009 32.522C527.009 34.2527 531.611 39.0907 540.815 47.036C544.355 50.104 547.541 53.6833 550.373 57.774C553.284 61.786 554.739 65.444 554.739 68.748ZM588.044 16.946C588.044 15.3727 588.674 13.878 589.932 12.462C591.191 11.046 592.45 10.338 593.708 10.338C595.046 10.338 596.619 11.9507 598.428 15.176C600.238 18.3227 601.142 20.958 601.142 23.082C601.142 23.8687 600.788 24.5767 600.08 25.206C599.372 25.8353 598.625 26.15 597.838 26.15C595.95 26.15 593.826 25.0093 591.466 22.728C589.185 20.4467 588.044 18.5193 588.044 16.946ZM587.454 33.702C588.949 33.702 590.365 34.6067 591.702 36.416C593.04 38.2253 593.708 39.9953 593.708 41.726C593.708 43.4567 592.568 48.6487 590.286 57.302C588.005 65.8767 585.134 75.5133 581.672 86.212C580.335 90.1453 578.644 92.112 576.598 92.112C575.497 92.112 574.553 91.6793 573.766 90.814C572.98 89.87 572.586 88.8473 572.586 87.746C572.586 86.566 572.862 84.7567 573.412 82.318C574.042 79.8007 574.907 76.4967 576.008 72.406C577.188 68.2367 578.093 64.854 578.722 62.258C579.43 59.662 580.138 56.7513 580.846 53.526C581.554 50.222 582.105 47.5867 582.498 45.62C582.97 43.5747 583.482 41.5293 584.032 39.484C585.134 35.6293 586.274 33.702 587.454 33.702ZM615.218 48.098L614.864 39.248C614.864 35.5507 615.729 33.702 617.46 33.702C618.954 33.702 620.37 34.6853 621.708 36.652C623.124 38.54 623.832 40.8213 623.832 43.496C623.832 46.092 623.753 48.0587 623.596 49.396C630.44 39.012 636.93 33.82 643.066 33.82C646.92 33.82 648.848 34.764 648.848 36.652C648.848 37.596 648.415 38.4613 647.55 39.248C646.684 40.0347 645.308 40.9393 643.42 41.962C639.25 43.7713 635.71 46.564 632.8 50.34C629.968 54.0373 627.647 58.246 625.838 62.966C624.028 67.686 622.573 71.6587 621.472 74.884C620.449 78.1093 619.662 80.6267 619.112 82.436C618.561 84.2453 617.932 86.0153 617.224 87.746C615.965 90.8927 614.51 92.466 612.858 92.466C611.52 92.466 610.419 91.7187 609.554 90.224C608.767 88.6507 608.374 87.156 608.374 85.74C608.374 84.2453 609.042 81.3347 610.38 77.008C613.605 67.096 615.218 57.4593 615.218 48.098ZM685.67 33.702C689.21 33.702 692.475 35.5113 695.464 39.13C698.453 42.67 699.948 45.8953 699.948 48.806C699.948 51.638 698.965 54.5487 696.998 57.538C697.942 58.718 698.414 59.7407 698.414 60.606C698.414 62.8087 697.903 66.5847 696.88 71.934C695.936 77.2833 695.346 80.784 695.11 82.436C694.953 84.088 694.795 85.4253 694.638 86.448C694.481 87.392 694.284 88.336 694.048 89.28C693.733 91.2467 693.025 92.23 691.924 92.23C690.508 92.23 689.328 91.0107 688.384 88.572C687.519 86.0547 687.007 82.8293 686.85 78.896C679.849 87.7853 673.359 92.23 667.38 92.23C663.761 92.23 660.182 90.696 656.642 87.628C653.181 84.4813 651.45 81.256 651.45 77.952C651.45 73.232 653.181 67.4107 656.642 60.488C660.103 53.4867 664.587 47.272 670.094 41.844C675.601 36.416 680.793 33.702 685.67 33.702ZM691.098 54.47C691.098 47.154 689.643 43.496 686.732 43.496C683.664 43.496 680.085 45.6987 675.994 50.104C671.903 54.4307 668.442 59.3473 665.61 64.854C662.778 70.3607 661.362 74.7267 661.362 77.952C661.362 79.2893 661.913 80.3907 663.014 81.256C664.115 82.0427 665.413 82.436 666.908 82.436C670.605 82.436 674.775 79.958 679.416 75.002C684.057 69.9673 687.283 63.8707 689.092 56.712C689.328 55.532 689.997 54.824 691.098 54.588V54.47ZM768.831 40.074C768.831 40.782 765.33 44.4793 758.329 51.166C755.733 53.6833 753.333 56.6727 751.131 60.134C749.007 63.5167 747.945 66.624 747.945 69.456C747.945 72.288 748.771 74.9233 750.423 77.362C752.153 79.722 754.002 81.5313 755.969 82.79C758.014 83.97 759.863 85.15 761.515 86.33C763.245 87.51 764.111 88.4933 764.111 89.28C764.111 91.2467 762.537 92.23 759.391 92.23C756.323 92.23 752.625 90.4993 748.299 87.038C744.051 83.498 741.415 79.5647 740.393 75.238C739.999 74.4513 739.685 73.704 739.449 72.996C734.099 80.2333 730.205 85.268 727.767 88.1C725.407 90.8533 723.637 92.23 722.457 92.23C721.277 92.23 719.979 91.3253 718.563 89.516C717.147 87.628 716.439 86.094 716.439 84.914C716.439 83.6553 717.697 78.5813 720.215 69.692C722.811 60.724 725.367 49.986 727.885 37.478C730.481 24.97 731.779 13.7993 731.779 3.966C731.779 2.70733 731.936 1.842 732.251 1.37C732.644 0.897998 733.431 0.661999 734.611 0.661999C735.791 0.661999 737.246 1.842 738.977 4.202C740.707 6.48333 741.573 8.72533 741.573 10.928C741.573 17.9293 740.157 27.7233 737.325 40.31C734.493 52.8967 731.11 64.854 727.177 76.182C736.066 63.5167 743.736 53.29 750.187 45.502C756.716 37.6353 760.728 33.702 762.223 33.702C763.796 33.702 765.291 34.4493 766.707 35.944C768.123 37.4387 768.831 38.8153 768.831 40.074Z" fill="white"/>
</svg>
