<svg width="300" height="213" viewBox="0 0 300 213" fill="none" xmlns="http://www.w3.org/2000/svg">
<path d="M237.427 105.722C237.427 94.1337 222.924 83.1514 200.689 76.341C205.82 53.6633 203.54 35.6211 193.491 29.8447C191.175 28.4897 188.467 27.8479 185.509 27.8479V35.7994C187.148 35.7994 188.467 36.1203 189.571 36.7264C194.417 39.5076 196.52 50.0977 194.881 63.7185C194.489 67.0702 193.847 70.6003 193.063 74.2016C186.079 72.4901 178.453 71.1708 170.436 70.315C165.625 63.7185 160.637 57.7282 155.612 52.4867C167.229 41.6827 178.133 35.7637 185.545 35.7637V27.8123C175.745 27.8123 162.917 34.801 149.947 46.9242C136.976 34.8723 124.148 27.9549 114.349 27.9549V35.9063C121.725 35.9063 132.664 41.7897 144.281 52.5223C139.292 57.7639 134.303 63.7185 129.564 70.315C121.511 71.1708 113.885 72.4901 106.901 74.2372C106.081 70.6716 105.476 67.2129 105.048 63.8968C103.373 50.276 105.44 39.6859 110.251 36.8691C111.32 36.2272 112.709 35.942 114.349 35.942V27.9905C111.355 27.9905 108.647 28.6324 106.295 29.9873C96.2822 35.7637 94.0373 53.7703 99.2042 76.3766C77.04 83.2227 62.6084 94.1693 62.6084 105.722C62.6084 117.31 77.1113 128.293 99.3467 135.103C94.2155 157.781 96.496 175.823 106.545 181.599C108.861 182.954 111.569 183.596 114.562 183.596C124.362 183.596 137.19 176.608 150.16 164.484C163.131 176.536 175.959 183.454 185.758 183.454C188.752 183.454 191.46 182.812 193.812 181.457C203.825 175.68 206.07 157.674 200.903 135.068C222.996 128.257 237.427 117.275 237.427 105.722ZM191.032 81.9391C189.714 86.5388 188.075 91.2811 186.222 96.0235C184.761 93.1709 183.228 90.3184 181.554 87.4659C179.914 84.6133 178.168 81.8321 176.422 79.1222C181.482 79.871 186.364 80.7981 191.032 81.9391ZM174.712 119.913C171.933 124.727 169.082 129.291 166.124 133.534C160.815 133.998 155.434 134.247 150.018 134.247C144.637 134.247 139.256 133.998 133.983 133.57C131.025 129.327 128.139 124.798 125.359 120.02C122.651 115.349 120.192 110.607 117.948 105.829C120.157 101.051 122.651 96.2731 125.324 91.602C128.103 86.7884 130.954 82.2243 133.911 77.9812C139.221 77.5177 144.602 77.2681 150.018 77.2681C155.399 77.2681 160.779 77.5177 166.053 77.9455C169.011 82.1887 171.897 86.7171 174.676 91.4951C177.384 96.1661 179.843 100.908 182.088 105.686C179.843 110.464 177.384 115.242 174.712 119.913ZM186.222 115.278C188.146 120.056 189.785 124.834 191.139 129.469C186.471 130.61 181.554 131.573 176.458 132.322C178.204 129.576 179.95 126.76 181.589 123.871C183.228 121.019 184.761 118.131 186.222 115.278ZM150.089 153.324C146.775 149.901 143.461 146.085 140.183 141.914C143.39 142.056 146.668 142.163 149.982 142.163C153.332 142.163 156.646 142.092 159.888 141.914C156.681 146.085 153.367 149.901 150.089 153.324ZM123.578 132.322C118.518 131.573 113.636 130.646 108.968 129.505C110.286 124.905 111.925 120.163 113.778 115.421C115.239 118.273 116.772 121.126 118.446 123.978C120.121 126.831 121.832 129.612 123.578 132.322ZM149.911 58.1204C153.225 61.5435 156.539 65.3587 159.817 69.5306C156.61 69.3879 153.332 69.281 150.018 69.281C146.668 69.281 143.354 69.3523 140.112 69.5306C143.319 65.3587 146.633 61.5435 149.911 58.1204ZM123.542 79.1222C121.796 81.8678 120.05 84.6846 118.411 87.5728C116.772 90.4254 115.239 93.2779 113.778 96.1304C111.854 91.3524 110.215 86.5744 108.861 81.9391C113.529 80.8337 118.446 79.871 123.542 79.1222ZM91.2935 123.764C78.6792 118.38 70.5191 111.32 70.5191 105.722C70.5191 100.124 78.6792 93.0283 91.2935 87.6798C94.358 86.3605 97.7076 85.1838 101.164 84.0785C103.195 91.0672 105.868 98.3412 109.182 105.793C105.903 113.21 103.266 120.448 101.271 127.401C97.7432 126.296 94.3936 125.084 91.2935 123.764ZM110.464 174.718C105.618 171.937 103.516 161.346 105.155 147.726C105.547 144.374 106.188 140.844 106.972 137.243C113.957 138.954 121.582 140.273 129.6 141.129C134.41 147.726 139.399 153.716 144.423 158.957C132.807 169.761 121.903 175.68 114.491 175.68C112.888 175.645 111.533 175.324 110.464 174.718ZM194.988 147.547C196.662 161.168 194.596 171.758 189.785 174.575C188.716 175.217 187.326 175.502 185.687 175.502C178.311 175.502 167.371 169.619 155.755 158.886C160.744 153.645 165.732 147.69 170.472 141.093C178.525 140.238 186.15 138.918 193.135 137.171C193.954 140.773 194.596 144.231 194.988 147.547ZM208.706 123.764C205.642 125.084 202.292 126.26 198.836 127.366C196.805 120.377 194.132 113.103 190.818 105.651C194.097 98.2342 196.734 90.9959 198.729 84.0428C202.257 85.1482 205.606 86.3605 208.742 87.6798C221.356 93.064 229.517 100.124 229.517 105.722C229.481 111.32 221.321 118.416 208.706 123.764Z" fill="#61DAFB"/>
<path d="M149.982 122.017C158.976 122.017 166.267 114.722 166.267 105.722C166.267 96.7226 158.976 89.427 149.982 89.427C140.988 89.427 133.698 96.7226 133.698 105.722C133.698 114.722 140.988 122.017 149.982 122.017Z" fill="#61DAFB"/>
</svg>
